<svg xmlns="http://www.w3.org/2000/svg" width="28.525" height="24.959" viewBox="0 0 28.525 24.959">
  <path id="Icon_awesome-quote-right" data-name="Icon awesome-quote-right" d="M25.85,2.25H18.719a2.675,2.675,0,0,0-2.674,2.674v7.131a2.675,2.675,0,0,0,2.674,2.674h4.457V18.3a3.569,3.569,0,0,1-3.566,3.566h-.446A1.334,1.334,0,0,0,17.828,23.2v2.674a1.334,1.334,0,0,0,1.337,1.337h.446A8.911,8.911,0,0,0,28.525,18.3V4.924A2.675,2.675,0,0,0,25.85,2.25Zm-16.045,0H2.674A2.675,2.675,0,0,0,0,4.924v7.131a2.675,2.675,0,0,0,2.674,2.674H7.131V18.3a3.569,3.569,0,0,1-3.566,3.566H3.12A1.334,1.334,0,0,0,1.783,23.2v2.674A1.334,1.334,0,0,0,3.12,27.209h.446A8.911,8.911,0,0,0,12.479,18.3V4.924A2.675,2.675,0,0,0,9.805,2.25Z" transform="translate(0 -2.25)" fill="#ffa726"/>
</svg>
