<svg xmlns="http://www.w3.org/2000/svg" width="60.059" height="63" viewBox="0 0 60.059 63">
  <g id="gestion-del-tiempo" transform="translate(-10.342)">
    <circle id="Elipse_1209" data-name="Elipse 1209" cx="30" cy="30" r="30" transform="translate(10.342 3)" fill="#ffaf10"/>
    <path id="Trazado_4440" data-name="Trazado 4440" d="M100.1,79.637v1.937a.367.367,0,0,1-.367.367H96.182a.367.367,0,0,1-.367-.367V79.637A1.161,1.161,0,0,0,95.08,78.6l-.9-.368a1.06,1.06,0,0,0-.453-.1,1.155,1.155,0,0,0-.8.31l-1.384,1.374a.374.374,0,0,1-.523,0l-2.51-2.491a.363.363,0,0,1,0-.514l1.384-1.374a1.152,1.152,0,0,0,.214-1.253l-.368-.885a1.166,1.166,0,0,0-1.04-.734H86.737a.369.369,0,0,1-.367-.367V68.683a.367.367,0,0,1,.367-.367h1.24A24.464,24.464,0,1,0,100.635,78.7,1.17,1.17,0,0,0,100.1,79.637Z" transform="translate(-39.392 -58.698)" fill="#fe3745"/>
    <path id="Trazado_4441" data-name="Trazado 4441" d="M57.3,91.337A24.463,24.463,0,0,1,80.724,66.9c-.345-.014-.691-.023-1.039-.023a24.464,24.464,0,0,0,0,48.928c.348,0,.695-.009,1.039-.023A24.463,24.463,0,0,1,57.3,91.337Z" transform="translate(-39.393 -58.698)" fill="#b7092b"/>
    <circle id="Elipse_1210" data-name="Elipse 1210" cx="19.576" cy="19.576" r="19.576" transform="translate(20.715 13.063)" fill="#fff"/>
    <g id="Grupo_20877" data-name="Grupo 20877" transform="translate(20.716 13.063)">
      <path id="Trazado_4442" data-name="Trazado 4442" d="M98.143,126.438a19.576,19.576,0,0,1,18.109-19.521q-.726-.054-1.467-.055a19.576,19.576,0,0,0,0,39.151q.74,0,1.467-.055A19.576,19.576,0,0,1,98.143,126.438Z" transform="translate(-95.209 -106.862)" fill="#d9eafc"/>
      <circle id="Elipse_1211" data-name="Elipse 1211" cx="13.036" cy="13.036" r="13.036" transform="translate(6.539 6.54)" fill="#d9eafc"/>
    </g>
    <path id="Trazado_4443" data-name="Trazado 4443" d="M151.82,173.392A13.038,13.038,0,0,1,163.3,160.449a13.036,13.036,0,1,0,0,25.886A13.038,13.038,0,0,1,151.82,173.392Z" transform="translate(-121.447 -140.754)" fill="#aec1ed"/>
    <path id="Trazado_4444" data-name="Trazado 4444" d="M155.155,180.762a13.953,13.953,0,1,1,13.953-13.953A13.969,13.969,0,0,1,155.155,180.762Zm0-26.073a12.12,12.12,0,1,0,12.12,12.12A12.133,12.133,0,0,0,155.155,154.689Z" transform="translate(-114.863 -134.17)" fill="#e26693"/>
    <circle id="Elipse_1212" data-name="Elipse 1212" cx="2.621" cy="2.621" r="2.621" transform="translate(37.67 30.017)" fill="#fff"/>
    <path id="Trazado_4445" data-name="Trazado 4445" d="M240.369,140.991h-7.012a3.551,3.551,0,0,0-2.5-2.5V125.4a.917.917,0,0,0-1.834,0v13.087a3.538,3.538,0,1,0,4.334,4.334h7.012a.917.917,0,0,0,0-1.834Zm-10.428,2.621a1.7,1.7,0,1,1,1.7-1.7A1.706,1.706,0,0,1,229.941,143.612Z" transform="translate(-189.649 -109.27)" fill="#52bbef"/>
    <path id="Trazado_4446" data-name="Trazado 4446" d="M160.8,248.867a.917.917,0,0,1-.648-1.565l13.987-13.986a.917.917,0,0,1,1.3,1.3L161.448,248.6A.914.914,0,0,1,160.8,248.867Z" transform="translate(-131.261 -204.559)" fill="#3eb7ff"/>
    <path id="Trazado_4447" data-name="Trazado 4447" d="M124.7,110.457a.367.367,0,0,1-.367-.367v-1.937a1.161,1.161,0,0,0-.736-1.038l-.9-.368a1.06,1.06,0,0,0-.453-.1,1.2,1.2,0,0,0-.673.205,18.787,18.787,0,0,1,2.3,2.888l-.283.163a.917.917,0,1,0,.917,1.588l.285-.165a18.524,18.524,0,0,1,2.04,7.606H126.5a.917.917,0,0,0,0,1.834h.332a18.525,18.525,0,0,1-2.04,7.606l-.285-.165a.917.917,0,0,0-.917,1.588l.283.163a18.808,18.808,0,0,1-5.567,5.567l-.163-.283a.917.917,0,1,0-1.588.917l.165.285a18.526,18.526,0,0,1-7.606,2.04v-.332a.917.917,0,0,0-1.834,0v.332a18.525,18.525,0,0,1-7.606-2.04l.165-.285a.917.917,0,1,0-1.588-.917l-.163.283a18.809,18.809,0,0,1-5.567-5.567l.283-.163a.917.917,0,1,0-.917-1.588l-.285.165a18.523,18.523,0,0,1-2.04-7.606H89.9a.917.917,0,0,0,0-1.834h-.332a18.524,18.524,0,0,1,2.04-7.606l.285.165a.917.917,0,0,0,.917-1.588l-.283-.163a18.808,18.808,0,0,1,5.567-5.567l.163.283a.917.917,0,1,0,1.588-.917l-.165-.285a18.635,18.635,0,0,1,17.045,0l-.165.285a.917.917,0,0,0,.793,1.375.9.9,0,0,0,.094-.006l.964-.957a1.152,1.152,0,0,0,.214-1.253l-.268-.644a20.44,20.44,0,0,0-1.935-.975h-1.166a.369.369,0,0,1-.367-.367v-.235a20.508,20.508,0,1,0,11.521,9.975Z" transform="translate(-67.909 -87.215)" fill="#e26693"/>
    <path id="Trazado_4448" data-name="Trazado 4448" d="M238.27,320.7h-4.106a.613.613,0,0,0-.611.611V323a.613.613,0,0,0,.611.611h4.106a.613.613,0,0,0,.611-.611v-1.684A.613.613,0,0,0,238.27,320.7Z" transform="translate(-195.925 -281.499)" fill="#02af8e"/>
    <path id="Trazado_4449" data-name="Trazado 4449" d="M235.286,323v-1.684a.613.613,0,0,1,.611-.611h-1.732a.613.613,0,0,0-.611.611V323a.613.613,0,0,0,.611.611H235.9A.613.613,0,0,1,235.286,323Z" transform="translate(-195.926 -281.5)" fill="#0f9390"/>
    <path id="Trazado_4450" data-name="Trazado 4450" d="M317.492,22.876a.613.613,0,0,0,.611.611h3.554a.613.613,0,0,0,.611-.611V20.939a.917.917,0,0,1,.578-.809l.911-.373a.924.924,0,0,1,.983.163l1.384,1.374a.619.619,0,0,0,.868,0L329.5,18.8a.607.607,0,0,0,0-.861l-1.384-1.374a.908.908,0,0,1-.163-.978l.374-.9a.922.922,0,0,1,.812-.577H331.1a.613.613,0,0,0,.611-.611V9.984a.613.613,0,0,0-.611-.611h-1.962a.922.922,0,0,1-.812-.577l-.374-.9a.909.909,0,0,1,.163-.979L329.5,5.546a.607.607,0,0,0,0-.861l-2.51-2.491a.619.619,0,0,0-.868,0l-1.384,1.373a.924.924,0,0,1-.983.163l-.911-.373a.917.917,0,0,1-.578-.809V.611A.613.613,0,0,0,321.658,0H318.1a.613.613,0,0,0-.611.611V2.548a.917.917,0,0,1-.578.809l-.91.373a.924.924,0,0,1-.983-.163l-1.384-1.373a.619.619,0,0,0-.868,0l-2.51,2.491a.607.607,0,0,0,0,.861l1.384,1.374a.908.908,0,0,1,.163.978l-.374.9a.922.922,0,0,1-.812.577h-1.961a.613.613,0,0,0-.611.611V13.5a.613.613,0,0,0,.611.611h1.961a.922.922,0,0,1,.812.577l.374.9a.908.908,0,0,1-.163.978l-1.384,1.374a.607.607,0,0,0,0,.861l2.51,2.491a.619.619,0,0,0,.868,0l1.384-1.374a.924.924,0,0,1,.983-.163l.911.373a.917.917,0,0,1,.578.809v1.937Z" transform="translate(-261.313)" fill="#445ea0"/>
    <ellipse id="Elipse_1213" data-name="Elipse 1213" cx="5.695" cy="5.652" rx="5.695" ry="5.652" transform="translate(52.872 6.091)" fill="#d9eafc"/>
    <path id="Trazado_4451" data-name="Trazado 4451" d="M359.995,55.483a5.667,5.667,0,0,1,4.829-5.587,5.781,5.781,0,0,0-.866-.065,5.652,5.652,0,1,0,0,11.3,5.782,5.782,0,0,0,.866-.065A5.667,5.667,0,0,1,359.995,55.483Z" transform="translate(-305.39 -43.74)" fill="#aec1ed"/>
    <path id="Trazado_4452" data-name="Trazado 4452" d="M357.375,55.47a6.569,6.569,0,1,1,6.612-6.569A6.6,6.6,0,0,1,357.375,55.47Zm0-11.3a4.735,4.735,0,1,0,4.778,4.735A4.763,4.763,0,0,0,357.375,44.166Z" transform="translate(-298.807 -37.157)" fill="#1a2b63"/>
    <ellipse id="Elipse_1214" data-name="Elipse 1214" cx="2.408" cy="2.389" rx="2.408" ry="2.389" transform="translate(56.16 9.355)" fill="#d9eafc"/>
    <path id="Trazado_4453" data-name="Trazado 4453" d="M386.89,78.911a2.389,2.389,0,0,1,1.541-2.227,2.389,2.389,0,1,0,0,4.455A2.389,2.389,0,0,1,386.89,78.911Z" transform="translate(-328.998 -67.168)" fill="#aec1ed"/>
    <path id="Trazado_4454" data-name="Trazado 4454" d="M380.982,75.634a3.306,3.306,0,1,1,3.324-3.306A3.319,3.319,0,0,1,380.982,75.634Zm0-4.779a1.473,1.473,0,1,0,1.491,1.472A1.483,1.483,0,0,0,380.982,70.856Z" transform="translate(-322.415 -60.585)" fill="#1a2b63"/>
  </g>
</svg>
