<svg xmlns="http://www.w3.org/2000/svg" width="60" height="62.547" viewBox="0 0 60 62.547">
  <g id="compartiendo-contenido" transform="translate(-11)">
    <circle id="Elipse_1207" data-name="Elipse 1207" cx="30" cy="30" r="30" transform="translate(11 2.547)" fill="#a53535"/>
    <path id="Trazado_4418" data-name="Trazado 4418" d="M234.35,320.017a.123.123,0,0,0,.121.1H244.6a.122.122,0,0,0,.087-.036l3.948-3.948a1.7,1.7,0,0,1,.692-.42,1.843,1.843,0,0,0-2.549.046l-3.374,3.374h-9.212Z" transform="translate(-195.833 -276.587)" fill="#ffdd8d"/>
    <path id="Trazado_4419" data-name="Trazado 4419" d="M235.6,322.784a.84.84,0,0,0,.827.69h10.062a.835.835,0,0,0,.594-.246l4.658-4.658a2.013,2.013,0,0,1,.589-.407l-.066-.066a1.844,1.844,0,0,0-2.6,0l-3.948,3.948H235.467Z" transform="translate(-196.954 -278.637)" fill="#ffc987"/>
    <path id="Trazado_4420" data-name="Trazado 4420" d="M203.419,297.085l-.467-.467a2.16,2.16,0,0,0-3.046,0l-4.658,4.658a.717.717,0,0,1-.508.21H184.678a.718.718,0,0,1-.706-.59l-.444-2.441a.718.718,0,0,1,.706-.846h4.241a2.156,2.156,0,0,0,2.154-2.154v-.66a2.156,2.156,0,0,0-2.154-2.154h-9.933a2.147,2.147,0,0,0-2.044,1.477c0,.009-.007.017-.011.026v12.31h19.665a2.146,2.146,0,0,0,1.032-.266l.029-.015a2.12,2.12,0,0,0,.567-.4l5.638-5.638a2.157,2.157,0,0,0,0-3.046Z" transform="translate(-145.203 -256.772)" fill="#ffe2b8"/>
    <path id="Trazado_4421" data-name="Trazado 4421" d="M188.474,292.643h-9.933a2.147,2.147,0,0,0-2.044,1.477c0,.009-.007.017-.011.026v2.1a2.138,2.138,0,0,1,.368-.109.718.718,0,0,0,.541-.479,2.147,2.147,0,0,1,2.044-1.477h9.933a2.14,2.14,0,0,1,1.244.4A2.157,2.157,0,0,0,188.474,292.643Z" transform="translate(-145.202 -256.774)" fill="#ffc987"/>
    <path id="Trazado_4422" data-name="Trazado 4422" d="M24.893,281.424H11.434a29.864,29.864,0,0,0,5.083,15.033h8.376Z" transform="translate(-0.381 -246.93)" fill="#ffaf10"/>
    <path id="Trazado_4423" data-name="Trazado 4423" d="M120.856,287.042a.615.615,0,0,1-.613-.613V269.564a.615.615,0,0,1,.613-.613h5.791a.615.615,0,0,1,.613.613v16.865a.615.615,0,0,1-.613.613Z" transform="translate(-95.853 -235.986)" fill="#ff9518"/>
    <path id="Trazado_4424" data-name="Trazado 4424" d="M122.675,286.429V269.564a.615.615,0,0,1,.613-.613h-2.432a.615.615,0,0,0-.613.613v16.865a.615.615,0,0,0,.613.613h2.432A.615.615,0,0,1,122.675,286.429Z" transform="translate(-95.853 -235.986)" fill="#ef8318"/>
    <circle id="Elipse_1208" data-name="Elipse 1208" cx="1.518" cy="1.518" r="1.518" transform="translate(26.379 45.949)" fill="#db722c"/>
    <path id="Trazado_4425" data-name="Trazado 4425" d="M55.425,103.268a.713.713,0,0,1-.712-.712V90.446H42.259a.615.615,0,0,0-.613.613v17.925a.615.615,0,0,0,.613.613H59.5a.615.615,0,0,0,.613-.613v-5.717h-4.69Z" transform="translate(-26.89 -79.36)" fill="#d9eafc"/>
    <path id="Trazado_4426" data-name="Trazado 4426" d="M44.078,108.984V91.059a.615.615,0,0,1,.613-.613H42.259a.615.615,0,0,0-.613.613v17.925a.615.615,0,0,0,.613.613h2.432A.615.615,0,0,1,44.078,108.984Z" transform="translate(-26.89 -79.36)" fill="#aec1ed"/>
    <g id="Grupo_20876" data-name="Grupo 20876" transform="translate(18.356 14.886)">
      <path id="Trazado_4427" data-name="Trazado 4427" d="M80.485,121.447H71.937a.919.919,0,1,0,0,1.839h8.548v-1.839Z" transform="translate(-71.018 -121.447)" fill="#445ea0"/>
      <path id="Trazado_4428" data-name="Trazado 4428" d="M80.485,146.465H71.937a.919.919,0,1,0,0,1.839h8.548v-1.839Z" transform="translate(-71.018 -143.399)" fill="#445ea0"/>
      <path id="Trazado_4429" data-name="Trazado 4429" d="M80.485,171.482H71.937a.919.919,0,1,0,0,1.839h8.548v-1.839Z" transform="translate(-71.018 -165.349)" fill="#445ea0"/>
      <path id="Trazado_4430" data-name="Trazado 4430" d="M76.671,198.337H71.937a.919.919,0,1,1,0-1.839h4.734a.919.919,0,1,1,0,1.839Z" transform="translate(-71.018 -187.299)" fill="#445ea0"/>
    </g>
    <path id="Trazado_4431" data-name="Trazado 4431" d="M168.218,21.688a.491.491,0,0,1,.49-.49H182.3V.835A.837.837,0,0,0,181.467,0H148.091a.837.837,0,0,0-.834.835V23.2a.837.837,0,0,0,.834.834h20.127V21.688Z" transform="translate(-119.556)" fill="#69cdff"/>
    <path id="Trazado_4432" data-name="Trazado 4432" d="M149.689,23.2V.835A.837.837,0,0,1,150.523,0h-2.432a.837.837,0,0,0-.834.835V23.2a.837.837,0,0,0,.834.834h2.432A.837.837,0,0,1,149.689,23.2Z" transform="translate(-119.556)" fill="#52bbef"/>
    <path id="Trazado_4433" data-name="Trazado 4433" d="M168.218,80.639a.491.491,0,0,1,.49-.49h13.009l-10.7-12.7a.681.681,0,0,0-1.075,0l-8.188,9.714a.681.681,0,0,1-1.075,0l-4.338-5.147a.681.681,0,0,0-1.076,0l-8,9.5v.636a.837.837,0,0,0,.834.834h20.127V80.639Z" transform="translate(-119.556 -58.951)" fill="#37c47a"/>
    <path id="Trazado_4434" data-name="Trazado 4434" d="M149.689,114.844v-.636l7.326-8.69-.678-.8a.681.681,0,0,0-1.076,0l-8,9.495v.636a.837.837,0,0,0,.834.834h2.432A.837.837,0,0,1,149.689,114.844Z" transform="translate(-119.556 -91.648)" fill="#02af8e"/>
    <path id="Trazado_4435" data-name="Trazado 4435" d="M374.371,17.782a2.5,2.5,0,1,0,2.5-2.5A2.5,2.5,0,0,0,374.371,17.782Z" transform="translate(-318.833 -13.406)" fill="#fff"/>
    <path id="Trazado_4436" data-name="Trazado 4436" d="M375.945,17.782a2.5,2.5,0,0,1,1.716-2.375,2.5,2.5,0,1,0,0,4.75A2.5,2.5,0,0,1,375.945,17.782Z" transform="translate(-318.833 -13.406)" fill="#d9eafc"/>
    <path id="Trazado_4437" data-name="Trazado 4437" d="M336.033,185.208a.615.615,0,0,1-.613.613H317.882a.615.615,0,0,1-.613-.613V172.556a.615.615,0,0,1,.613-.613H335.42a.615.615,0,0,1,.613.613v12.652Z" transform="translate(-268.73 -150.868)" fill="#ff9518"/>
    <path id="Trazado_4438" data-name="Trazado 4438" d="M319.7,185.208V172.556a.615.615,0,0,1,.613-.613h-2.432a.615.615,0,0,0-.613.613v12.652a.615.615,0,0,0,.613.613h2.432A.615.615,0,0,1,319.7,185.208Z" transform="translate(-268.73 -150.868)" fill="#ef8318"/>
    <path id="Trazado_4439" data-name="Trazado 4439" d="M368.811,200.4c0-.674.478-.95,1.061-.613l4.826,2.786a.648.648,0,0,1,0,1.226l-4.826,2.786c-.584.337-1.061.061-1.061-.613Z" transform="translate(-313.954 -175.175)" fill="#fff"/>
  </g>
</svg>
