<svg xmlns="http://www.w3.org/2000/svg" width="60" height="62.342" viewBox="0 0 60 62.342">
  <g id="seo" transform="translate(-10.762)">
    <ellipse id="Elipse_1199" data-name="Elipse 1199" cx="30" cy="29.5" rx="30" ry="29.5" transform="translate(10.762 2.974)" fill="#ff9518"/>
    <path id="Trazado_4361" data-name="Trazado 4361" d="M130.249,31.852A6.81,6.81,0,0,1,138.735,21.3V.609A.611.611,0,0,0,138.126,0H101.594a.611.611,0,0,0-.609.609v55a29.83,29.83,0,0,0,37.75,0V32.774A6.812,6.812,0,0,1,130.249,31.852Z" transform="translate(-79.068)" fill="#d9eafc"/>
    <path id="Trazado_4362" data-name="Trazado 4362" d="M103.4.609A.611.611,0,0,1,104.01,0h-2.416a.611.611,0,0,0-.609.609v55a29.914,29.914,0,0,0,2.416,1.781Z" transform="translate(-79.068)" fill="#c3ddf4"/>
    <path id="Trazado_4363" data-name="Trazado 4363" d="M171.261,36.9a.611.611,0,0,1-.609.609H144.591a.611.611,0,0,1-.609-.609V34.645a.611.611,0,0,1,.609-.609h26.061a.611.611,0,0,1,.609.609V36.9Z" transform="translate(-116.829 -29.892)" fill="#fff"/>
    <path id="Trazado_4364" data-name="Trazado 4364" d="M146.4,36.9V34.645a.611.611,0,0,1,.609-.609h-2.416a.611.611,0,0,0-.609.609V36.9a.611.611,0,0,0,.609.609h2.416A.611.611,0,0,1,146.4,36.9Z" transform="translate(-116.829 -29.892)" fill="#eef6ff"/>
    <g id="Grupo_20866" data-name="Grupo 20866" transform="translate(34.745 11.812)">
      <path id="Trazado_4365" data-name="Trazado 4365" d="M225.071,98.834H207.253a.913.913,0,0,1,0-1.826h17.818a.913.913,0,0,1,0,1.826Z" transform="translate(-206.34 -97.008)" fill="#b7092b"/>
      <path id="Trazado_4366" data-name="Trazado 4366" d="M225.071,122.832H207.253a.913.913,0,0,1,0-1.826h17.818a.913.913,0,0,1,0,1.826Z" transform="translate(-206.34 -118.084)" fill="#b7092b"/>
    </g>
    <circle id="Elipse_1200" data-name="Elipse 1200" cx="2.74" cy="2.74" r="2.74" transform="translate(27.56 11.447)" fill="#fff"/>
    <g id="Grupo_20867" data-name="Grupo 20867" transform="translate(34.745 20.396)">
      <path id="Trazado_4367" data-name="Trazado 4367" d="M222.776,169.329a6.778,6.778,0,0,1,2.782-1.683.908.908,0,0,0-.488-.142H207.253a.913.913,0,0,0,0,1.826h15.523Z" transform="translate(-206.34 -167.504)" fill="#0f9390"/>
      <path id="Trazado_4368" data-name="Trazado 4368" d="M221.886,191.5H207.253a.913.913,0,0,0,0,1.826h13.8A6.764,6.764,0,0,1,221.886,191.5Z" transform="translate(-206.34 -188.58)" fill="#0f9390"/>
    </g>
    <circle id="Elipse_1201" data-name="Elipse 1201" cx="2.74" cy="2.74" r="2.74" transform="translate(27.56 20.03)" fill="#2bb381"/>
    <path id="Trazado_4369" data-name="Trazado 4369" d="M143.48,164.309a3.653,3.653,0,1,1,3.653-3.653A3.657,3.657,0,0,1,143.48,164.309Zm0-5.479a1.826,1.826,0,1,0,1.827,1.826A1.828,1.828,0,0,0,143.48,158.829Z" transform="translate(-113.18 -137.886)" fill="#0f9390"/>
    <g id="Grupo_20868" data-name="Grupo 20868" transform="translate(34.745 28.979)">
      <path id="Trazado_4370" data-name="Trazado 4370" d="M221.064,238h-13.81a.913.913,0,0,0,0,1.826h14.666A6.761,6.761,0,0,1,221.064,238Z" transform="translate(-206.34 -238)" fill="#1e99d6"/>
      <path id="Trazado_4371" data-name="Trazado 4371" d="M222.828,262H207.253a.913.913,0,1,0,0,1.826h17.818a.907.907,0,0,0,.537-.176A6.78,6.78,0,0,1,222.828,262Z" transform="translate(-206.34 -259.076)" fill="#1e99d6"/>
    </g>
    <circle id="Elipse_1202" data-name="Elipse 1202" cx="2.74" cy="2.74" r="2.74" transform="translate(27.56 28.614)" fill="#69cdff"/>
    <path id="Trazado_4372" data-name="Trazado 4372" d="M143.48,234.8a3.653,3.653,0,1,1,3.653-3.653A3.657,3.657,0,0,1,143.48,234.8Zm0-5.479a1.826,1.826,0,1,0,1.827,1.826A1.828,1.828,0,0,0,143.48,229.325Z" transform="translate(-113.18 -199.798)" fill="#1e99d6"/>
    <g id="Grupo_20869" data-name="Grupo 20869" transform="translate(34.745 37.563)">
      <path id="Trazado_4373" data-name="Trazado 4373" d="M225.071,310.322H207.253a.913.913,0,0,1,0-1.826h17.818a.913.913,0,0,1,0,1.826Z" transform="translate(-206.34 -308.496)" fill="#db722c"/>
      <path id="Trazado_4374" data-name="Trazado 4374" d="M225.071,334.32H207.253a.913.913,0,0,1,0-1.826h17.818a.913.913,0,0,1,0,1.826Z" transform="translate(-206.34 -329.572)" fill="#db722c"/>
    </g>
    <circle id="Elipse_1203" data-name="Elipse 1203" cx="2.74" cy="2.74" r="2.74" transform="translate(27.56 37.198)" fill="#ffaf10"/>
    <path id="Trazado_4375" data-name="Trazado 4375" d="M143.48,305.3a3.653,3.653,0,1,1,3.653-3.653A3.657,3.657,0,0,1,143.48,305.3Zm0-5.479a1.826,1.826,0,1,0,1.827,1.826A1.828,1.828,0,0,0,143.48,299.821Z" transform="translate(-113.18 -261.711)" fill="#db722c"/>
    <path id="Trazado_4376" data-name="Trazado 4376" d="M336.574,168.112a6.81,6.81,0,1,1-9.631,0A6.811,6.811,0,0,1,336.574,168.112Z" transform="translate(-275.761 -145.891)" fill="#fff"/>
    <path id="Trazado_4377" data-name="Trazado 4377" d="M337.05,176.9l-5.785-5.785a7.72,7.72,0,1,0-1.291,1.292l5.785,5.785a.913.913,0,1,0,1.291-1.292Zm-16.022-6.391a5.9,5.9,0,1,1,4.17,1.727A5.9,5.9,0,0,1,321.028,170.51Z" transform="translate(-269.2 -139.304)" fill="#1a2b63"/>
    <path id="Trazado_4378" data-name="Trazado 4378" d="M350.7,185.307a4.639,4.639,0,1,1-6.56,0A4.639,4.639,0,0,1,350.7,185.307Z" transform="translate(-291.421 -161.551)" fill="#69cdff"/>
    <path id="Trazado_4379" data-name="Trazado 4379" d="M346.554,191.876a4.638,4.638,0,0,1,2.072-7.758,4.639,4.639,0,1,0,0,8.957A4.615,4.615,0,0,1,346.554,191.876Z" transform="translate(-291.421 -161.559)" fill="#3eb7ff"/>
    <path id="Trazado_4380" data-name="Trazado 4380" d="M147.093,88.222a.913.913,0,1,0-1.342-1.239l-.175.189a3.646,3.646,0,1,0,1.192,1.4Zm-2.778.317-.893.968-.915-.774a.9.9,0,0,0-.081-.061,1.814,1.814,0,0,1,1.89-.132Zm.99,1.622a1.825,1.825,0,0,1-3.632.258l1.237,1.047a.913.913,0,0,0,1.261-.078l1.134-1.229S145.305,90.159,145.305,90.16Z" transform="translate(-113.179 -75.974)" fill="#b7092b"/>
    <g id="Grupo_20870" data-name="Grupo 20870" transform="translate(27.205 45.599)">
      <path id="Trazado_4381" data-name="Trazado 4381" d="M171.041,376.322H145.327a.913.913,0,1,1,0-1.826h25.714a.913.913,0,1,1,0,1.826Z" transform="translate(-144.414 -374.496)" fill="#445ea0"/>
      <path id="Trazado_4382" data-name="Trazado 4382" d="M171.041,400.32H145.327a.913.913,0,1,1,0-1.826h25.714a.913.913,0,1,1,0,1.826Z" transform="translate(-144.414 -395.572)" fill="#445ea0"/>
      <path id="Trazado_4383" data-name="Trazado 4383" d="M171.041,425.322H145.327a.913.913,0,1,1,0-1.826h25.714a.913.913,0,1,1,0,1.826Z" transform="translate(-144.414 -417.53)" fill="#445ea0"/>
      <path id="Trazado_4384" data-name="Trazado 4384" d="M171.041,449.32H145.327a.913.913,0,0,1,0-1.826h25.714a.913.913,0,0,1,0,1.826Z" transform="translate(-144.414 -438.606)" fill="#445ea0"/>
    </g>
  </g>
</svg>
