<svg xmlns="http://www.w3.org/2000/svg" width="60" height="60.996" viewBox="0 0 60 60.996">
  <g id="mantenimiento-web" transform="translate(-5.5 -0.382)">
    <circle id="Elipse_1204" data-name="Elipse 1204" cx="29.5" cy="29.5" r="29.5" transform="translate(5.5 0.382)" fill="#f24976"/>
    <path id="Trazado_4385" data-name="Trazado 4385" d="M82.814,215.738a1.1,1.1,0,0,0-.972-.686H79.76a.53.53,0,0,1-.529-.529v-3.734a.53.53,0,0,1,.529-.529h2.082a1.1,1.1,0,0,0,.975-.693l.394-.946a1.087,1.087,0,0,0-.2-1.169l-1.469-1.458a.525.525,0,0,1,0-.744l2.664-2.643a.537.537,0,0,1,.752,0l1.469,1.458a1.084,1.084,0,0,0,.753.288.985.985,0,0,0,.428-.093l.959-.393a1.1,1.1,0,0,0,.688-.97v-2.056a.529.529,0,0,1,.529-.529h3.772a.53.53,0,0,1,.529.529V202.9a1.1,1.1,0,0,0,.695.972l.96.394a.972.972,0,0,0,.42.089,1.084,1.084,0,0,0,.753-.288l.729-.723v-3.656H95.265a.574.574,0,0,1-.435-.251L92.9,196.089a.573.573,0,0,1,0-.5l1.931-3.344a.574.574,0,0,1,.435-.251h2.377v-5.9H96.307a.521.521,0,0,1-.058.259l-1.492,2.583a.574.574,0,0,1-.435.251H93.45v2.237a.24.24,0,0,1-.24.24H53.929a.24.24,0,0,1-.24-.24v-5.329H49.5v23.833a29.5,29.5,0,0,0,6.4,6.646H83.158Z" transform="translate(-38.729 -163.742)" fill="#c3ddf4"/>
    <g id="Grupo_20871" data-name="Grupo 20871" transform="translate(10.769 10.719)">
      <path id="Trazado_4386" data-name="Trazado 4386" d="M109.159,377.836a.53.53,0,0,1,.529-.529h2.082a1.1,1.1,0,0,0,.975-.693l.313-.752h-29.2a.36.36,0,0,0-.359.359v2.362a.36.36,0,0,0,.359.359h25.3Z" transform="translate(-79.426 -341.507)" fill="#eef6ff"/>
      <path id="Trazado_4387" data-name="Trazado 4387" d="M97.477,95.649l-1.2-2.076a.573.573,0,0,1,0-.5L97.477,91a.5.5,0,0,1,.165-.16V89H49.5v11.747H53.69v-8.11a.24.24,0,0,1,.24-.24H93.211a.24.24,0,0,1,.24.24v4.912h.872a.574.574,0,0,1,.435.251l1.491,2.583a.571.571,0,0,1,.047.364h1.345V95.81A.5.5,0,0,1,97.477,95.649Z" transform="translate(-49.498 -89)" fill="#eef6ff"/>
    </g>
    <path id="Trazado_4388" data-name="Trazado 4388" d="M96.445,33.875H50.7a1.2,1.2,0,0,0-1.2,1.2V40.6H97.642V35.073A1.2,1.2,0,0,0,96.445,33.875Z" transform="translate(-38.729 -29.758)" fill="#293d7c"/>
    <path id="Trazado_4389" data-name="Trazado 4389" d="M53.072,33.875H50.7a1.2,1.2,0,0,0-1.2,1.2V40.6h2.376V35.073A1.2,1.2,0,0,1,53.072,33.875Z" transform="translate(-38.729 -29.758)" fill="#1a2b63"/>
    <path id="Trazado_4390" data-name="Trazado 4390" d="M65.534,55.166a1.005,1.005,0,1,1,.711-.294A1.016,1.016,0,0,1,65.534,55.166Z" transform="translate(-51.959 -46.729)" fill="#e26693"/>
    <path id="Trazado_4391" data-name="Trazado 4391" d="M93.067,55.165a1,1,0,1,1,.712-.3A1.01,1.01,0,0,1,93.067,55.165Z" transform="translate(-76.194 -46.728)" fill="#ffaf10"/>
    <path id="Trazado_4392" data-name="Trazado 4392" d="M120.613,55.166a1.005,1.005,0,1,1,.711-.294A1.011,1.011,0,0,1,120.613,55.166Z" transform="translate(-100.441 -46.729)" fill="#37c47a"/>
    <path id="Trazado_4393" data-name="Trazado 4393" d="M121.268,127.816a.574.574,0,0,1-.435-.251l-1.491-2.583a.573.573,0,0,1,0-.5l1.491-2.583a.574.574,0,0,1,.435-.251h2.23v-4.912a.36.36,0,0,0-.359-.359H83.857a.36.36,0,0,0-.359.359v13.319a.36.36,0,0,0,.359.359h39.282a.36.36,0,0,0,.359-.359v-2.237Z" transform="translate(-68.657 -102.377)" fill="#02af8e"/>
    <path id="Trazado_4394" data-name="Trazado 4394" d="M85.874,130.052V116.733a.36.36,0,0,1,.359-.359H83.857a.36.36,0,0,0-.359.359v13.319a.36.36,0,0,0,.359.359h2.376A.36.36,0,0,1,85.874,130.052Z" transform="translate(-68.657 -102.377)" fill="#0f9390"/>
    <g id="Grupo_20872" data-name="Grupo 20872" transform="translate(14.841 29.805)">
      <path id="Trazado_4395" data-name="Trazado 4395" d="M95.534,253.954a.36.36,0,0,1-.359.359H83.857a.36.36,0,0,1-.359-.359v-5.222a.36.36,0,0,1,.359-.359H95.175a.36.36,0,0,1,.359.359Z" transform="translate(-83.498 -248.373)" fill="#eef6ff"/>
      <path id="Trazado_4396" data-name="Trazado 4396" d="M207.667,261.572a.36.36,0,0,1-.359.359h-7a.36.36,0,0,1-.359-.359V248.731a.36.36,0,0,1,.359-.359h7a.36.36,0,0,1,.359.359Z" transform="translate(-185.999 -248.372)" fill="#eef6ff"/>
      <path id="Trazado_4397" data-name="Trazado 4397" d="M281.343,260.819a.525.525,0,0,1,0-.744l2.664-2.643a.525.525,0,0,1,.2-.122v-8.578a.36.36,0,0,0-.359-.359h-7a.36.36,0,0,0-.359.359v12.841a.36.36,0,0,0,.359.359h5.622Z" transform="translate(-253.371 -248.372)" fill="#eef6ff"/>
      <path id="Trazado_4398" data-name="Trazado 4398" d="M353.6,258.89a1.084,1.084,0,0,0,.753.288.985.985,0,0,0,.428-.093l.959-.393a1.1,1.1,0,0,0,.688-.97v-2.056a.529.529,0,0,1,.529-.529h3.787v-3.062l-.671-1.163a.573.573,0,0,1,0-.5l.672-1.163v-.518a.36.36,0,0,0-.359-.359h-7a.36.36,0,0,0-.359.359v9.583Z" transform="translate(-320.742 -248.373)" fill="#eef6ff"/>
      <path id="Trazado_4399" data-name="Trazado 4399" d="M95.534,317.573a.36.36,0,0,1-.359.359H83.857a.36.36,0,0,1-.359-.359v-5.222a.36.36,0,0,1,.359-.359H95.175a.36.36,0,0,1,.359.359Z" transform="translate(-83.498 -304.373)" fill="#eef6ff"/>
    </g>
    <g id="Grupo_20873" data-name="Grupo 20873" transform="translate(14.841 29.805)">
      <path id="Trazado_4400" data-name="Trazado 4400" d="M85.874,378.582V376.22a.36.36,0,0,1,.359-.359H83.857a.36.36,0,0,0-.359.359v2.362a.36.36,0,0,0,.359.359h2.376A.36.36,0,0,1,85.874,378.582Z" transform="translate(-83.498 -360.593)" fill="#d9eafc"/>
      <path id="Trazado_4401" data-name="Trazado 4401" d="M85.874,253.954v-5.222a.36.36,0,0,1,.359-.359H83.857a.36.36,0,0,0-.359.359v5.222a.36.36,0,0,0,.359.359h2.376A.36.36,0,0,1,85.874,253.954Z" transform="translate(-83.498 -248.373)" fill="#d9eafc"/>
      <path id="Trazado_4402" data-name="Trazado 4402" d="M202.321,261.572V248.731a.36.36,0,0,1,.359-.359H200.3a.36.36,0,0,0-.359.359v12.841a.36.36,0,0,0,.359.359h2.376A.36.36,0,0,1,202.321,261.572Z" transform="translate(-185.999 -248.372)" fill="#d9eafc"/>
      <path id="Trazado_4403" data-name="Trazado 4403" d="M278.859,261.572V248.731a.36.36,0,0,1,.359-.359h-2.376a.36.36,0,0,0-.359.359v12.841a.36.36,0,0,0,.359.359h2.376A.36.36,0,0,1,278.859,261.572Z" transform="translate(-253.371 -248.372)" fill="#d9eafc"/>
      <path id="Trazado_4404" data-name="Trazado 4404" d="M353.6,258.89a1.084,1.084,0,0,0,.753.288.986.986,0,0,0,.428-.093l.617-.252v-10.1a.36.36,0,0,1,.359-.359h-2.376a.36.36,0,0,0-.359.359v9.583Z" transform="translate(-320.742 -248.373)" fill="#d9eafc"/>
      <path id="Trazado_4405" data-name="Trazado 4405" d="M85.874,317.573v-5.222a.36.36,0,0,1,.359-.359H83.857a.36.36,0,0,0-.359.359v5.222a.36.36,0,0,0,.359.359h2.376A.36.36,0,0,1,85.874,317.573Z" transform="translate(-83.498 -304.373)" fill="#d9eafc"/>
    </g>
    <path id="Trazado_4406" data-name="Trazado 4406" d="M380.8,54.951h-5.3a.9.9,0,0,1,0-1.8h5.3a.9.9,0,0,1,0,1.8Z" transform="translate(-324.901 -46.729)" fill="#aec1ed"/>
    <path id="Trazado_4407" data-name="Trazado 4407" d="M306.788,328.142a.651.651,0,0,0,.649.649h3.772a.651.651,0,0,0,.649-.649v-2.056a.973.973,0,0,1,.614-.859l.967-.4a.98.98,0,0,1,1.044.173l1.469,1.458a.657.657,0,0,0,.921,0l2.664-2.644a.645.645,0,0,0,0-.914l-1.469-1.458a.964.964,0,0,1-.173-1.039l.4-.953a.978.978,0,0,1,.862-.613h2.082a.651.651,0,0,0,.649-.649V314.46a.651.651,0,0,0-.649-.649h-2.082a.979.979,0,0,1-.862-.613l-.4-.953a.965.965,0,0,1,.173-1.038l1.469-1.457a.645.645,0,0,0,0-.914l-2.664-2.644a.657.657,0,0,0-.921,0l-1.469,1.458a.981.981,0,0,1-1.044.173l-.967-.4a.973.973,0,0,1-.614-.859v-2.056a.651.651,0,0,0-.649-.649h-3.772a.651.651,0,0,0-.649.649v2.056a.973.973,0,0,1-.614.859l-.966.4a.981.981,0,0,1-1.044-.173l-1.469-1.458a.657.657,0,0,0-.921,0l-2.664,2.643a.645.645,0,0,0,0,.914l1.469,1.458a.964.964,0,0,1,.173,1.038l-.4.953a.978.978,0,0,1-.862.613h-2.082a.651.651,0,0,0-.649.649v3.734a.651.651,0,0,0,.649.649h2.082a.978.978,0,0,1,.862.613l.4.953a.964.964,0,0,1-.173,1.038L299.11,322.9a.645.645,0,0,0,0,.914l2.664,2.644a.657.657,0,0,0,.921,0L304.164,325a.981.981,0,0,1,1.044-.173l.967.4a.973.973,0,0,1,.614.859v2.056Z" transform="translate(-256.382 -267.413)" fill="#445ea0"/>
    <ellipse id="Elipse_1205" data-name="Elipse 1205" cx="6.044" cy="5.999" rx="6.044" ry="5.999" transform="translate(46.896 42.915)" fill="#ff9518"/>
    <path id="Trazado_4408" data-name="Trazado 4408" d="M353,363.846a6.014,6.014,0,0,1,5.125-5.93,6.151,6.151,0,0,0-.919-.069,6,6,0,1,0,0,12,6.117,6.117,0,0,0,.919-.069A6.014,6.014,0,0,1,353,363.846Z" transform="translate(-304.268 -314.932)" fill="#ef8318"/>
    <path id="Trazado_4409" data-name="Trazado 4409" d="M350.057,363.666a6.972,6.972,0,1,1,7.017-6.971A7,7,0,0,1,350.057,363.666Zm0-12a5.026,5.026,0,1,0,5.071,5.025A5.054,5.054,0,0,0,350.057,351.669Z" transform="translate(-297.116 -307.78)" fill="#293d7c"/>
    <ellipse id="Elipse_1206" data-name="Elipse 1206" cx="2.555" cy="2.535" rx="2.555" ry="2.535" transform="translate(50.386 46.379)" fill="#c3ddf4"/>
    <path id="Trazado_4410" data-name="Trazado 4410" d="M382.138,389.295a2.535,2.535,0,0,1,1.636-2.364,2.536,2.536,0,1,0,0,4.727A2.535,2.535,0,0,1,382.138,389.295Z" transform="translate(-329.913 -340.38)" fill="#aec1ed"/>
    <path id="Trazado_4411" data-name="Trazado 4411" d="M375.7,385.651a3.509,3.509,0,1,1,3.528-3.509A3.522,3.522,0,0,1,375.7,385.651Zm0-5.071a1.563,1.563,0,1,0,1.582,1.563A1.575,1.575,0,0,0,375.7,380.58Z" transform="translate(-322.761 -333.228)" fill="#db722c"/>
    <path id="Trazado_4412" data-name="Trazado 4412" d="M383.415,165.8a.69.69,0,0,1-.539-.311l-1.491-2.583a.69.69,0,0,1,0-.622l1.491-2.583a.69.69,0,0,1,.539-.311H386.4a.69.69,0,0,1,.539.311l1.491,2.583a.69.69,0,0,1,0,.622l-1.491,2.583a.69.69,0,0,1-.539.311Z" transform="translate(-330.803 -140.237)" fill="#ef8318"/>
    <g id="Grupo_20874" data-name="Grupo 20874" transform="translate(53.992 12.343)">
      <path id="Trazado_4413" data-name="Trazado 4413" d="M440.445,107.959a.69.69,0,0,1-.539-.311l-1.2-2.076a.69.69,0,0,1,0-.622l1.2-2.076a.69.69,0,0,1,.539-.311h2.4a.69.69,0,0,1,.539.311l1.2,2.076a.69.69,0,0,1,0,.622l-1.2,2.076a.69.69,0,0,1-.539.311Z" transform="translate(-435.253 -102.563)" fill="#ffd00d"/>
      <path id="Trazado_4414" data-name="Trazado 4414" d="M412.955,242.317a.69.69,0,0,1-.539-.311l-1.931-3.344a.69.69,0,0,1,0-.622l1.931-3.344a.69.69,0,0,1,.539-.311h3.861a.69.69,0,0,1,.539.311l1.931,3.344a.69.69,0,0,1,0,.622l-1.931,3.344a.69.69,0,0,1-.539.311Z" transform="translate(-410.411 -218.598)" fill="#ffd00d"/>
    </g>
    <path id="Trazado_4415" data-name="Trazado 4415" d="M385.253,165.485l-1.491-2.583a.69.69,0,0,1,0-.622l1.491-2.583a.69.69,0,0,1,.539-.311h-2.376a.69.69,0,0,0-.539.311l-1.491,2.583a.69.69,0,0,0,0,.622l1.491,2.583a.69.69,0,0,0,.539.311h2.376A.69.69,0,0,1,385.253,165.485Z" transform="translate(-330.804 -140.237)" fill="#db722c"/>
    <g id="Grupo_20875" data-name="Grupo 20875" transform="translate(53.992 12.343)">
      <path id="Trazado_4416" data-name="Trazado 4416" d="M442.283,107.648l-1.2-2.076a.69.69,0,0,1,0-.622l1.2-2.076a.69.69,0,0,1,.539-.311h-2.376a.69.69,0,0,0-.539.311l-1.2,2.076a.69.69,0,0,0,0,.622l1.2,2.076a.69.69,0,0,0,.539.311h2.376A.69.69,0,0,1,442.283,107.648Z" transform="translate(-435.254 -102.563)" fill="#ffaf10"/>
      <path id="Trazado_4417" data-name="Trazado 4417" d="M414.791,242.006l-1.931-3.344a.69.69,0,0,1,0-.622l1.931-3.344a.69.69,0,0,1,.539-.311h-2.376a.69.69,0,0,0-.539.311l-1.931,3.344a.69.69,0,0,0,0,.622l1.931,3.344a.69.69,0,0,0,.539.311h2.376A.691.691,0,0,1,414.791,242.006Z" transform="translate(-410.41 -218.598)" fill="#ffaf10"/>
    </g>
  </g>
</svg>
